<svg xmlns="http://www.w3.org/2000/svg" xmlns:xlink="http://www.w3.org/1999/xlink" id="Layer_1" x="0px" y="0px" width="1000" height="279.83" viewBox="0 0 1000 279.83" style="enable-background:new 0 0 1000 279.83;" xml:space="preserve" role="img" aria-label="Broadpeak-Intl"><style type="text/css">	.st0{fill:#FFFFFF;}	.st1{fill-rule:evenodd;clip-rule:evenodd;fill:#FFFFFF;}	.st2{fill:#00AEEF;}</style><g id="Layer_2_00000005235259378608628000000015218540746008568725_">	<g id="Layer_1-2_00000026165313292509471870000001490184391229229443_">		<polygon class="st0" points="577.94,205.68 584.16,205.68 584.16,232.57 577.94,232.57 577.94,205.68   "></polygon>		<polygon class="st0" points="616.36,205.68 616.36,232.57 611.26,232.57 597.85,216.24 597.85,232.57 591.7,232.57 591.7,205.68    596.86,205.68 610.21,222 610.21,205.68 616.36,205.68   "></polygon>		<polygon class="st0" points="629.47,210.76 620.86,210.76 620.86,205.68 644.3,205.68 644.3,210.76 635.69,210.76 635.69,232.57    629.47,232.57 629.47,210.76   "></polygon>		<polygon class="st0" points="669.57,227.58 669.57,232.57 648.74,232.57 648.74,205.68 669.06,205.68 669.06,210.67    654.93,210.67 654.93,216.52 667.41,216.52 667.41,221.36 654.93,221.36 654.93,227.58 669.57,227.58   "></polygon>		<path class="st1" d="M692.86,232.57l-5.19-7.49h-5.72v7.49h-6.22v-26.89h11.65c2.12-0.05,4.23,0.36,6.19,1.18   c3.44,1.44,5.62,4.86,5.48,8.58c0.14,3.71-2.07,7.11-5.53,8.48l6.03,8.65H692.86z M692.74,215.44c0.08-1.33-0.47-2.61-1.47-3.48   c-1.23-0.89-2.74-1.32-4.26-1.21h-5.07v9.36h5.03c1.52,0.11,3.03-0.32,4.26-1.22c1-0.86,1.54-2.13,1.47-3.45H692.74z"></path>		<polygon class="st0" points="729.71,205.68 729.71,232.57 724.61,232.57 711.2,216.24 711.2,232.57 705.05,232.57 705.05,205.68    710.19,205.68 723.57,222 723.57,205.68 729.71,205.68   "></polygon>		<path class="st1" d="M754.95,226.81h-12.49l-2.43,5.76h-6.38l11.99-26.89h6.19l12.03,26.89h-6.53l-2.39-5.76H754.95z    M752.99,222.08l-4.26-10.32l-4.26,10.32H752.99z"></path>		<polygon class="st0" points="773.35,210.76 764.76,210.76 764.76,205.68 788.18,205.68 788.18,210.76 779.57,210.76    779.57,232.57 773.35,232.57 773.35,210.76   "></polygon>		<polygon class="st0" points="792.63,205.68 798.85,205.68 798.85,232.57 792.63,232.57 792.63,205.68   "></polygon>		<path class="st1" d="M819.42,233.03c-2.63,0.04-5.22-0.58-7.55-1.8c-6.68-3.54-9.23-11.83-5.69-18.51   c1.28-2.43,3.27-4.41,5.69-5.69c4.73-2.42,10.34-2.42,15.07,0c2.17,1.15,3.99,2.87,5.26,4.97c2.57,4.4,2.57,9.85,0,14.26   c-1.27,2.1-3.09,3.82-5.26,4.98C824.62,232.45,822.04,233.07,819.42,233.03L819.42,233.03z M819.42,227.72   c1.5,0.03,2.98-0.35,4.29-1.09c1.25-0.73,2.27-1.78,2.95-3.05c1.46-2.79,1.46-6.12,0-8.92c-0.69-1.26-1.71-2.32-2.95-3.05   c-2.68-1.45-5.91-1.45-8.59,0c-1.27,0.72-2.31,1.78-3.02,3.05c-1.46,2.79-1.46,6.12,0,8.92c0.7,1.28,1.75,2.34,3.02,3.05   C816.43,227.37,817.91,227.75,819.42,227.72L819.42,227.72z"></path>		<polygon class="st0" points="864.59,205.68 864.59,232.57 859.49,232.57 846.07,216.24 846.07,232.57 839.92,232.57    839.92,205.68 845.07,205.68 858.44,222 858.44,205.68 864.59,205.68   "></polygon>		<path class="st1" d="M889.83,226.81h-12.47l-2.39,5.76h-6.38l11.99-26.89h6.15l12.03,26.89h-6.53L889.83,226.81z M887.88,222.08   l-4.28-10.32l-4.26,10.32H887.88z"></path>		<polygon class="st0" points="902.67,205.68 908.89,205.68 908.89,227.5 922.36,227.5 922.36,232.57 902.67,232.57 902.67,205.68      "></polygon>		<path class="st0" d="M284.34,142.29l-13.27,12.5c-0.48,0.52-1.23,0.71-1.9,0.49c-0.66-0.18-1.15-0.73-1.27-1.4V92.69   c-0.05-0.77,0.39-1.48,1.11-1.77c0.7-0.32,1.53-0.16,2.06,0.4l12.97,12.1l17.84,16.64l13.27,12.43c0.81,0.62,0.96,1.78,0.33,2.58   c-0.02,0.03-0.04,0.06-0.07,0.08c-0.29,0.38-0.73,0.61-1.21,0.65l-4.11,0.35l-4.42,0.38l-3.66,0.31l-4.42,0.38l-2.27,0.19   l11.16,24.31c0.45,0.81,0.28,1.82-0.41,2.43l-8.3,3.89c-0.9,0.51-2.04,0.19-2.55-0.71c-0.06-0.1-0.11-0.21-0.15-0.33l-10.57-24.49   l-0.12-0.25H284.34z"></path>		<path class="st2" d="M881.39,120.55L926.14,75h-37.21l-45.55,43.15v-83.9l-31.11,16.64v25.52c-7.21-2.1-14.7-3.09-22.22-2.95   c-8.54-0.01-17.04,1.13-25.27,3.39c-7.53,1.96-14.66,5.21-21.08,9.6l11.19,21.77c4.22-3.28,8.98-5.77,14.08-7.37   c5.45-1.79,11.15-2.7,16.88-2.7c8.26,0,14.45,1.83,18.59,5.5c4.14,3.67,6.2,8.89,6.19,15.67h-24.77   c-15.72,0-27.34,2.86-34.85,8.59c-0.59,0.58-1.32,0.99-2.12,1.19c0.23-10.3-2.29-20.48-7.3-29.48   c-4.68-8.29-11.65-15.05-20.08-19.47c-18.21-9.17-39.7-9.06-57.82,0.29c-8.57,4.56-15.72,11.4-20.64,19.77   c-0.37,0.62-0.69,1.25-1.03,1.89c-0.4-0.84-0.81-1.67-1.27-2.48c-4.48-8.15-11.16-14.86-19.28-19.39   c-8.33-4.63-17.73-7-27.26-6.88c-14.74,0-26,4.66-33.76,13.98V74.95h-13.95v107.47H530.7v38.76l31.15-16.64v-33.45   c7.86,8.66,18.67,12.99,32.43,12.99c9.53,0.14,18.92-2.21,27.26-6.83c8.13-4.54,14.82-11.28,19.28-19.44   c0.46-0.83,0.87-1.67,1.28-2.51c0.37,0.68,0.72,1.34,1.12,2c5.18,8.49,12.68,15.32,21.63,19.68c10.01,4.88,21.03,7.31,32.17,7.09   c19.45,0,34.23-5.79,44.34-17.38l-16.58-17.99c-3.46,3.42-7.57,6.11-12.09,7.9c-4.76,1.73-9.81,2.58-14.87,2.49   c-8.12,0-14.91-1.93-20.37-5.79c-5.38-3.72-9.1-9.38-10.39-15.79h75.86c-4.73,9.86-4.15,21.44,1.55,30.77   c3.42,5.11,8.24,9.14,13.89,11.59c6.77,2.95,14.11,4.38,21.49,4.2c15.66,0,26.47-4.8,32.43-14.39l0.35,12.78h30.8v-27.33   l14.99-14.74l33.91,42.15h37.89L881.39,120.55z M608.55,150.4c-10.91,10.76-28.44,10.76-39.35,0c-5.13-5.39-7.7-12.61-7.7-21.67   s2.57-16.29,7.7-21.67c10.91-10.76,28.44-10.76,39.35,0c5.1,5.4,7.65,12.62,7.65,21.67S613.65,145.01,608.55,150.4z    M666.59,119.34c0.78-6.38,3.94-12.23,8.85-16.38c5.01-4.07,11.33-6.2,17.78-5.99c6.41-0.18,12.66,1.99,17.59,6.09   c4.85,4.13,8,9.9,8.85,16.22L666.59,119.34z M810.65,148.52c-1.56,4.56-4.7,8.42-8.85,10.88c-4.3,2.51-9.2,3.79-14.18,3.7   c-5.45,0-9.75-1.16-12.88-3.49c-3.05-2.18-4.81-5.74-4.69-9.49c0-8.38,6.39-12.58,19.16-12.59h21.38L810.65,148.52z"></path>		<path class="st2" d="M546.57,75V34.25l-31.16,16.64v35.5c-7.71-8.67-18.43-13-32.15-12.99c-9.59-0.14-19.05,2.2-27.46,6.8   c-7.98,4.4-14.55,10.96-18.99,18.91c-2.07-5.29-5.34-10.03-9.57-13.83c-8.91-7.91-21.69-11.87-38.33-11.88   c-8.54-0.01-17.04,1.13-25.27,3.39c-7.53,1.96-14.66,5.21-21.08,9.6l11.23,21.77c4.21-3.28,8.98-5.78,14.08-7.37   c5.45-1.76,11.15-2.65,16.88-2.62c8.26,0,14.45,1.83,18.58,5.5c4.13,3.67,6.19,8.89,6.19,15.67h-24.77   c-15.72,0-27.34,2.86-34.85,8.59c-1.82,1.36-3.48,2.91-4.95,4.64c0.07-1.27,0.12-2.55,0.12-3.85c0.16-10.04-2.47-19.92-7.59-28.56   c-5.04-8.37-12.3-15.18-20.98-19.68c-9.38-4.84-19.82-7.28-30.37-7.09c-10.58-0.18-21.04,2.26-30.46,7.09   c-5.7,2.95-10.83,6.89-15.14,11.65V73.4c-7.48-0.15-14.92,1.21-21.86,4c-6.04,2.43-11.27,6.52-15.08,11.79V75h-29.76v16.64   c-3.86-4.58-8.52-8.43-13.75-11.35c-8.34-4.62-17.74-7-27.27-6.88c-13.76,0-24.57,4.33-32.43,12.99V34.25L69.27,50.89v131.57   h29.76v-12.38c7.72,9.33,18.98,13.99,33.76,13.99c9.53,0.14,18.93-2.22,27.27-6.83c5.23-2.92,9.89-6.76,13.75-11.34v16.63h31.15   v-50.82c0-9.99,2.53-17.47,7.59-22.47c5.07-5,12.06-7.49,21.1-7.49c-4.51,8.26-6.8,17.55-6.65,26.96   c-0.16,10.04,2.47,19.93,7.59,28.57c5.07,8.39,12.37,15.2,21.08,19.68c19.17,9.45,41.65,9.45,60.83,0   c8.67-4.5,15.93-11.31,20.98-19.68l1.25-2.21c0.45,4.73,2.03,9.28,4.61,13.27c3.42,5.11,8.24,9.14,13.89,11.59   c6.77,2.94,14.1,4.38,21.48,4.2c15.98,0,26.9-5,32.76-14.99v13.39h29.15v-18.37c4.08,5.38,9.25,9.83,15.17,13.08   c8.42,4.59,17.88,6.93,27.46,6.8c14.65,0,25.84-4.66,33.55-13.99v12.38h13.89V75H546.57z M147.06,150.4   c-5.1,5.39-12.27,8.33-19.68,8.09c-7.42,0.24-14.58-2.71-19.68-8.09c-5.11-5.39-7.67-12.61-7.68-21.67   c-0.01-9.06,2.55-16.29,7.68-21.67c5.11-5.39,12.28-8.34,19.7-8.09c7.42-0.24,14.58,2.71,19.68,8.09c5.13,5.4,7.7,12.62,7.7,21.67   s-2.57,16.28-7.7,21.67H147.06z M315.37,135.16c-0.29,0.38-0.73,0.61-1.21,0.65l-4.11,0.35l-4.42,0.38l-3.66,0.31l-4.42,0.38   l-2.27,0.19l11.16,24.31c0.45,0.81,0.28,1.82-0.41,2.43l-8.26,3.89c-0.9,0.51-2.04,0.19-2.55-0.71c-0.06-0.1-0.11-0.21-0.15-0.33   l-10.57-24.49l-0.12-0.25l-13.27,12.5c-0.48,0.52-1.23,0.71-1.9,0.49c-0.66-0.18-1.15-0.73-1.27-1.4V92.69   c-0.05-0.77,0.39-1.48,1.11-1.77c0.7-0.32,1.53-0.16,2.06,0.4l12.97,12.1l17.84,16.64l13.27,12.43c0.78,0.65,0.89,1.81,0.24,2.59   C315.42,135.11,315.4,135.13,315.37,135.16z M409.46,148.52c-1.55,4.57-4.69,8.43-8.85,10.88c-4.3,2.51-9.2,3.79-14.18,3.7   c-5.45,0-9.75-1.16-12.88-3.49c-3.05-2.18-4.81-5.74-4.69-9.49c0-8.38,6.39-12.58,19.16-12.59h21.36L409.46,148.52z M508.23,150.4   c-10.91,10.77-28.45,10.77-39.36,0c-5.19-5.39-7.78-12.61-7.78-21.67s2.59-16.29,7.78-21.67c10.91-10.77,28.45-10.77,39.36,0   c5.15,5.4,7.72,12.62,7.72,21.67S513.38,145.01,508.23,150.4z"></path>	</g></g></svg>