<svg xmlns="http://www.w3.org/2000/svg" viewBox="0 0 583.95 134.84"><defs><style>.cls-1,.cls-2{fill:#231f20;}.cls-2{fill-rule:evenodd;}.cls-3{fill:#fff;}.cls-4{fill:#00aeef;}</style></defs><g id="Layer_2" data-name="Layer 2"><g id="Layer_1-2" data-name="Layer 1"><polygon class="cls-1" points="345.05 116.29 349.27 116.29 349.27 134.53 345.05 134.53 345.05 116.29 345.05 116.29"></polygon><polygon class="cls-1" points="371.11 116.29 371.11 134.53 367.65 134.53 358.55 123.45 358.55 134.53 354.38 134.53 354.38 116.29 357.88 116.29 366.94 127.36 366.94 116.29 371.11 116.29 371.11 116.29"></polygon><polygon class="cls-1" points="380 119.73 374.16 119.73 374.16 116.29 390.06 116.29 390.06 119.73 384.22 119.73 384.22 134.53 380 134.53 380 119.73 380 119.73"></polygon><polygon class="cls-1" points="407.2 131.14 407.2 134.53 393.07 134.53 393.07 116.29 406.86 116.29 406.86 119.67 397.27 119.67 397.27 123.64 405.74 123.64 405.74 126.92 397.27 126.92 397.27 131.14 407.2 131.14 407.2 131.14"></polygon><path class="cls-2" d="M423,134.53l-3.52-5.08h-3.88v5.08h-4.22V116.29h7.9a10.25,10.25,0,0,1,4.2.8,6.07,6.07,0,0,1,3.72,5.82,5.94,5.94,0,0,1-3.75,5.75l4.09,5.87Zm-.08-11.62a2.88,2.88,0,0,0-1-2.36,4.41,4.41,0,0,0-2.89-.82h-3.44v6.35H419a4.35,4.35,0,0,0,2.89-.83,2.9,2.9,0,0,0,1-2.34Z"></path><polygon class="cls-1" points="448 116.29 448 134.53 444.54 134.53 435.44 123.45 435.44 134.53 431.27 134.53 431.27 116.29 434.76 116.29 443.83 127.36 443.83 116.29 448 116.29 448 116.29"></polygon><path class="cls-2" d="M465.12,130.62h-8.47L455,134.53h-4.33l8.13-18.24H463l8.16,18.24h-4.43l-1.62-3.91Zm-1.33-3.21-2.89-7-2.89,7Z"></path><polygon class="cls-1" points="477.6 119.73 471.77 119.73 471.77 116.29 487.66 116.29 487.66 119.73 481.82 119.73 481.82 134.53 477.6 134.53 477.6 119.73 477.6 119.73"></polygon><polygon class="cls-1" points="490.68 116.29 494.9 116.29 494.9 134.53 490.68 134.53 490.68 116.29 490.68 116.29"></polygon><path class="cls-2" d="M508.85,134.84a10.67,10.67,0,0,1-5.12-1.22,9.29,9.29,0,0,1,0-16.42,11.23,11.23,0,0,1,10.22,0,9.26,9.26,0,0,1,3.57,3.37,9.58,9.58,0,0,1,0,9.67,9.29,9.29,0,0,1-3.57,3.38,10.62,10.62,0,0,1-5.1,1.22Zm0-3.6a5.7,5.7,0,0,0,2.91-.74,5.3,5.3,0,0,0,2-2.07,6.55,6.55,0,0,0,0-6.05,5.43,5.43,0,0,0-2-2.07,6.11,6.11,0,0,0-5.83,0,5.43,5.43,0,0,0-2.05,2.07,6.55,6.55,0,0,0,0,6.05,5.3,5.3,0,0,0,2.05,2.07,5.74,5.74,0,0,0,2.92.74Z"></path><polygon class="cls-1" points="539.49 116.29 539.49 134.53 536.03 134.53 526.93 123.45 526.93 134.53 522.76 134.53 522.76 116.29 526.25 116.29 535.32 127.36 535.32 116.29 539.49 116.29 539.49 116.29"></polygon><path class="cls-2" d="M556.61,130.62h-8.46l-1.62,3.91H542.2l8.13-18.24h4.17l8.16,18.24h-4.43l-1.62-3.91Zm-1.32-3.21-2.9-7-2.89,7Z"></path><polygon class="cls-1" points="565.32 116.29 569.54 116.29 569.54 131.09 578.68 131.09 578.68 134.53 565.32 134.53 565.32 116.29 565.32 116.29"></polygon><path class="cls-3" d="M145.89,73.29l-9,8.48a1.23,1.23,0,0,1-1.29.33,1.2,1.2,0,0,1-.86-.95l0-41.51a1.21,1.21,0,0,1,.75-1.2,1.23,1.23,0,0,1,1.4.27l8.8,8.21,12.1,11.29,9,8.43a1.25,1.25,0,0,1,.18,1.81,1.16,1.16,0,0,1-.82.44l-2.79.24-3,.26-2.48.21-3,.26-1.54.13,7.57,16.49a1.33,1.33,0,0,1-.28,1.65L155,90.77a1.27,1.27,0,0,1-1.83-.7L146,73.46l-.08-.17Z"></path><path class="cls-4" d="M550.89,58.54l30.35-30.9H556l-30.9,29.27V0L504,11.29V28.6a50.64,50.64,0,0,0-15.07-2,64.24,64.24,0,0,0-17.14,2.3,45.93,45.93,0,0,0-14.3,6.51l7.59,14.77a30.34,30.34,0,0,1,9.55-5,36.81,36.81,0,0,1,11.45-1.83q8.4,0,12.61,3.73t4.2,10.63H486.09q-16,0-23.64,5.83a3.18,3.18,0,0,1-1.44.81,39.35,39.35,0,0,0-4.95-20,33.56,33.56,0,0,0-13.62-13.21,43.18,43.18,0,0,0-39.22.2,35.66,35.66,0,0,0-14,13.41c-.25.42-.47.85-.7,1.28-.27-.57-.55-1.13-.86-1.68a33.55,33.55,0,0,0-13.08-13.15,37.19,37.19,0,0,0-18.49-4.67q-15,0-22.9,9.48v-8.4h-9.46v72.9H313v26.29l21.13-11.29V92.82q8,8.81,22,8.81A37.09,37.09,0,0,0,374.62,97,33.52,33.52,0,0,0,387.7,83.81c.31-.56.59-1.13.87-1.7.25.46.49.91.76,1.36A35.29,35.29,0,0,0,404,96.82a47.68,47.68,0,0,0,21.82,4.81q19.79,0,30.08-11.79l-11.25-12.2a24.45,24.45,0,0,1-8.2,5.36,28.15,28.15,0,0,1-10.09,1.69q-8.26,0-13.82-3.93a17.14,17.14,0,0,1-7.05-10.71h51.46A21.88,21.88,0,0,0,458,90.92a21.78,21.78,0,0,0,9.42,7.86A34.46,34.46,0,0,0,482,101.63q15.93,0,22-9.76l.24,8.67h20.89V82l10.17-10,23,28.59H584ZM365.81,78.79a19,19,0,0,1-26.69,0q-5.22-5.48-5.22-14.7t5.22-14.7a19,19,0,0,1,26.69,0Q371,54.88,371,64.09T365.81,78.79Zm39.37-21.07a17.32,17.32,0,0,1,6-11.11,18.19,18.19,0,0,1,12.06-4.06,17.87,17.87,0,0,1,11.93,4.13,17.49,17.49,0,0,1,6,11ZM502.9,77.51a13.75,13.75,0,0,1-6,7.38,18.4,18.4,0,0,1-9.62,2.51q-5.55,0-8.74-2.37a7.61,7.61,0,0,1-3.18-6.44q0-8.53,13-8.54h14.5Z"></path><path class="cls-4" d="M323.77,27.64V0L302.63,11.29V35.37q-7.85-8.82-21.81-8.81a37.73,37.73,0,0,0-18.63,4.61A33,33,0,0,0,249.31,44a24.74,24.74,0,0,0-6.49-9.38q-9.07-8.05-26-8.06a64.24,64.24,0,0,0-17.14,2.3,45.93,45.93,0,0,0-14.3,6.51L193,50.14a30.24,30.24,0,0,1,9.55-5A36.81,36.81,0,0,1,214,43.36q8.4,0,12.6,3.73t4.2,10.63H214q-16,0-23.64,5.83A20.36,20.36,0,0,0,187,66.7c.05-.86.08-1.73.08-2.61a36.79,36.79,0,0,0-5.15-19.37A35.91,35.91,0,0,0,167.7,31.37a43.28,43.28,0,0,0-20.6-4.81,43.66,43.66,0,0,0-20.66,4.81,36.55,36.55,0,0,0-10.27,7.9V26.56a37.87,37.87,0,0,0-14.83,2.71,23.44,23.44,0,0,0-10.23,8V27.64H70.92V38.93a33.64,33.64,0,0,0-9.33-7.7,37.26,37.26,0,0,0-18.5-4.67q-14,0-22,8.81V0L0,11.29v89.25H20.19v-8.4q7.86,9.49,22.9,9.49A37.16,37.16,0,0,0,61.59,97a33.61,33.61,0,0,0,9.33-7.69v11.28H92.05V66.12q0-10.16,5.15-15.24c3.44-3.39,8.18-5.08,14.31-5.08A37,37,0,0,0,107,64.09a36.8,36.8,0,0,0,5.15,19.38,35.84,35.84,0,0,0,14.3,13.35,46.65,46.65,0,0,0,41.26,0,36,36,0,0,0,14.23-13.35l.85-1.5a20.09,20.09,0,0,0,3.13,9,21.78,21.78,0,0,0,9.42,7.86,34.46,34.46,0,0,0,14.57,2.85q16.26,0,22.22-10.17v9.08H251.9V88.13A32.62,32.62,0,0,0,262.19,97a37.84,37.84,0,0,0,18.63,4.61q14.91,0,22.76-9.49v8.4H313V27.64Zm-271,51.15a17.61,17.61,0,0,1-13.35,5.49,17.61,17.61,0,0,1-13.35-5.49q-5.2-5.48-5.21-14.7t5.21-14.7A17.61,17.61,0,0,1,39.43,43.9a17.61,17.61,0,0,1,13.35,5.49Q58,54.88,58,64.09T52.78,78.79ZM166.94,68.45a1.16,1.16,0,0,1-.82.44l-2.79.24-3,.26-2.48.21-3,.26-1.54.13,7.57,16.49a1.33,1.33,0,0,1-.28,1.65L155,90.77a1.27,1.27,0,0,1-1.83-.7L146,73.46l-.08-.17-9,8.48a1.23,1.23,0,0,1-1.29.33,1.2,1.2,0,0,1-.86-.95l0-41.51a1.21,1.21,0,0,1,.75-1.2,1.23,1.23,0,0,1,1.4.27l8.8,8.21,12.1,11.29,9,8.43A1.25,1.25,0,0,1,166.94,68.45Zm63.82,9.06a13.69,13.69,0,0,1-6,7.38,18.4,18.4,0,0,1-9.62,2.51q-5.55,0-8.74-2.37a7.61,7.61,0,0,1-3.18-6.44q0-8.53,13-8.54h14.49Zm67,1.28a19,19,0,0,1-26.7,0q-5.28-5.48-5.28-14.7t5.28-14.7a19,19,0,0,1,26.7,0Q303,54.88,303,64.09T297.76,78.79Z"></path></g></g></svg>