<svg xmlns="http://www.w3.org/2000/svg" id="Layer_1" data-name="Layer 1" viewBox="0 0 500 500"><defs><style>      .cls-1 {        fill: #49c5f5;      }      .cls-1, .cls-2, .cls-3, .cls-4, .cls-5, .cls-6, .cls-7, .cls-8, .cls-9, .cls-10, .cls-11, .cls-12, .cls-13, .cls-14 {        stroke-width: 0px;      }      .cls-2 {        fill: #276cfe;      }      .cls-3 {        fill: #47c4f5;      }      .cls-4 {        fill: #266cfe;      }      .cls-5 {        fill: #2c70fe;      }      .cls-6 {        fill: #2a6efe;      }      .cls-7 {        fill: #e8d3cb;      }      .cls-8 {        fill: #d9d9d9;      }      .cls-9 {        fill: #f2ece7;      }      .cls-10 {        fill: #2a6ffe;      }      .cls-11 {        fill: #f8eee7;      }      .cls-12 {        fill: #f3ece7;      }      .cls-13 {        fill: #f6ede7;      }      .cls-14 {        fill: #46c4f5;      }    </style></defs><path class="cls-3" d="M338.41,185.9c-24.38-.02-48.77,0-73.15-.12-2.58-.01-4.36,1-6.24,2.52-17.69,14.23-35.45,28.37-53.16,42.57-2.7,2.17-5.35,4.08-9.05,2.37-3.43-1.58-3.81-4.55-4.13-7.88-.98-10.51-.27-21.02-.46-31.53-.14-7.98-.03-8.08-7.87-7.95-4.3.07-8.3-.36-11.62-3.48-3.07-2.88-4.86-6.21-4.83-10.55.08-11.86.02-23.72,0-35.58-.01-5.36-.06-5.42-4.65-2.68-28.42,16.95-46.33,41.72-54.32,73.69-2.83,11.33-4.94,22.82-4.17,34.61-3.92-.12-7.2,2.02-10.88,3.45-.56-8.73.66-16.96,1.83-25.19,3.54-24.97,13.45-46.95,30.74-65.43,10.73-11.47,23.66-20,37.6-27.02,2.7-1.36,4.04-2.85,3.96-6.07-.23-10.02-.12-20.05-.15-30.08.01-24.89.02-49.78.05-74.67.01-10.29,5.18-15.74,15.41-16.34,1.5-.09,3.01-.02,4.51-.02,73.5,0,146.99-.03,220.49.03,14.19.01,28.37.35,42.56.55,10.2.14,15.68,5.6,15.7,15.92.05,26.9.02,53.79.02,80.69,0,23.55.01,47.11,0,70.66,0,12.2-5.23,17.46-17.32,17.47-22.38.01-44.77.1-67.15-.08-4.24-.03-4.95.85-3.63,4.98,6.64,20.78,7.44,42.3,7.16,63.87-.06,4.5.47,6.4,5.94,6.84,16.81,1.36,28.88,15.13,28.98,32.08.12,18.88.11,37.75,0,56.63-.11,18.54-13.79,32.12-32.36,32.35-5.85.07-11.69.16-17.54.23-.05-.5-.15-1-.15-1.49-.02-38.74-.02-77.48-.05-116.22,0-2.1-.15-4.04,2.9-4.06,2.57-.02,2.08-2.16,2.07-3.73-.03-8.16-.33-16.31-.74-24.47-.74-14.54-2.66-28.76-6.87-42.72-.95-3.16-2.12-4.37-5.4-4.28-8.01.21-16.03.11-24.04.13ZM325.46,144.36c1.49.06,2.97.16,4.46.17,6.74,0,10.4-2.59,10.36-7.3-.04-4.62-4.06-7.37-10.58-7.15-.79.03-1.57.38-2.36.58-7.49-.62-11.67,1.71-11.76,6.57-.08,4.68,3.81,7.48,9.88,7.13ZM274.34,144.31c2.97.29,5.98.66,8.89-.26,3.59-1.13,5.54-3.6,5.12-7.5-.42-3.91-2.78-5.89-6.64-6.01-2.15-.07-4.31.06-6.47.1-2.07-.87-4.25-.73-6.41-.73-11.51,0-23.02-.02-34.53,0-4.17,0-8.36-.19-12.49.26-4.28.47-7.09,2.84-6.77,7.65.31,4.52,3.32,6.69,7.29,6.71,17.34.1,34.68-.13,52.01-.24ZM405.62,57.39c2.16.05,4.33.14,6.49.13,4.44-.01,6.77-2.6,7.33-6.68.48-3.53-2.73-6.88-6.8-7.24-2.64-.23-5.32,0-7.99.03-.83-.06-1.66-.16-2.5-.16-59.49,0-118.98-.01-178.47,0-1,0-2.07-.15-2.99.14-3.5,1.09-5.81,3.24-5.65,7.22.16,3.92,2.22,6.2,6.11,6.65,1.82.21,3.67.12,5.51.12,52.14,0,104.28.01,156.41,0,7.52,0,15.03-.13,22.55-.2ZM406.56,100.65c2.15.04,4.31.2,6.45.09,3.65-.18,5.96-2.29,6.41-5.79.48-3.69-1.24-6.4-4.94-7.6-3.24-1.05-6.55-.65-9.85-.45-1.5-.08-2.99-.24-4.49-.24-58.44-.01-116.88-.01-175.32,0-1.33,0-2.7-.06-3.98.23-4.18.96-6.46,4.45-5.75,8.58.69,4.02,3.86,5.87,10.2,5.87,58.11,0,116.21.01,174.32-.03,2.32,0,4.63-.44,6.95-.68Z"></path><path class="cls-4" d="M167.87,91.55c.02,10.03-.08,20.06.15,30.08.07,3.22-1.27,4.71-3.96,6.07-13.94,7.02-26.87,15.54-37.6,27.02-17.28,18.48-27.19,40.46-30.74,65.43-1.17,8.24-2.39,16.47-1.83,25.19,3.68-1.43,6.96-3.57,10.88-3.45,17.21-.47,27.13,9.19,27.14,26.48.02,35.87.02,71.74,0,107.6,0,14.31-7.75,23.84-21.19,25.94-12.48,1.94-23.95-6.96-26.31-18.01-.1-.46-.49-.86-.75-1.29.03-15.7.07-31.4.08-47.1.02-23.22-.03-46.44.06-69.66.01-3.06-.15-5.19-4.13-4.88-3.65.29-7.34.02-11.02,0,.3-26.08,3.08-51.78,10.85-76.83,13.46-43.4,41.78-73.04,83.29-90.59,1.68-.71,3.39-1.34,5.09-2.01Z"></path><path class="cls-4" d="M338.41,185.9c8.01-.02,16.03.08,24.04-.13,3.28-.09,4.45,1.12,5.4,4.28,4.21,13.96,6.13,28.18,6.87,42.72.41,8.16.71,16.3.74,24.47,0,1.57.5,3.71-2.07,3.73-3.05.02-2.9,1.96-2.9,4.06.03,38.74.03,77.48.05,116.22,0,.5.1,1,.15,1.49,0,.22-.08.41-.21.58-2.62,7.33-6.97,13.22-13.98,16.92-10.08,3.28-19.41,2.69-27.25-5.34-4.5-4.61-6.88-10.15-6.88-16.65,0-37.58-.04-75.17.02-112.75.02-13.17,10.12-23.47,23.38-23.56,3.95-.03,4.67-1.18,4.48-4.8-.96-17.79-4.05-35.05-11.85-51.24Z"></path><path class="cls-2" d="M293.37,476.73c-3.72,11.02-10.63,19.03-22.28,21.49-5.8,1.22-11.94,1.11-17.93,1.17-14.85.15-29.71.14-44.56.03-16.46-.12-27.93-9.63-31.04-25.48-3.01-15.36,9.89-32.86,25.52-33.28,21.51-.57,43.08-.78,64.56.11,13.4.56,21.55,9.4,25.63,21.94,1.12,4.67.78,9.34.09,14.02Z"></path><path class="cls-14" d="M68.65,260.98c3.67.02,7.37.28,11.02,0,3.98-.31,4.14,1.82,4.13,4.88-.09,23.22-.04,46.44-.06,69.66-.01,15.7-.05,31.4-.08,47.1-7.14-.07-14.22.92-21.44-.05-16.37-2.19-28.54-15.37-28.59-31.86-.06-18.02.66-36.07-.19-54.05-.92-19.4,13.92-37.14,35.23-35.68Z"></path><path class="cls-1" d="M293.37,476.73c.69-4.68,1.03-9.36-.09-14.02,13.81-.11,27.67,1.48,41.4-1.01,14.51-2.63,21.53-10.76,21.79-25.43.21-12.01.04-24.02.04-36.03,7.01-3.7,11.36-9.59,13.98-16.92,0,17.69.17,35.37-.01,53.06-.27,25.64-13.37,38.73-39.12,40.33-12.69.79-25.33.29-37.99.02Z"></path><path class="cls-5" d="M190.68,332.07c-.07-5.86,4.31-10.55,9.79-10.49,5.7.07,10.24,4.51,10.36,10.14.13,5.72-4.68,10.5-10.53,10.48-5.26-.02-9.56-4.55-9.62-10.13Z"></path><path class="cls-6" d="M160.3,342.3c-5.51.07-10.12-4.52-10.16-10.13-.04-5.65,4.44-10.12,10.12-10.11,5.86.01,10.03,4.18,10.09,10.08.06,5.75-4.22,10.09-10.05,10.17Z"></path><path class="cls-10" d="M240.97,342.29c-5.8.06-9.85-4.12-9.85-10.15,0-5.93,3.73-9.94,9.38-10.08,6.11-.16,10.65,4.15,10.62,10.1-.03,5.74-4.37,10.07-10.15,10.13Z"></path><path class="cls-10" d="M291.35,332.3c-.06,5.84-4.3,9.99-10.2,9.98-5.7,0-9.94-4.42-9.89-10.28.05-5.8,4.4-10.05,10.18-9.95,5.9.1,9.97,4.31,9.9,10.24Z"></path><path class="cls-12" d="M406.56,100.65c-2.32.24-4.63.68-6.95.68-58.11.04-116.21.03-174.32.03-6.34,0-9.51-1.85-10.2-5.87-.71-4.13,1.57-7.62,5.75-8.58,1.28-.29,2.65-.23,3.98-.23,58.44-.01,116.88-.01,175.32,0,1.5,0,2.99.15,4.49.23,6.44,4.36,6.85,7.31,1.92,13.75Z"></path><path class="cls-11" d="M405.62,57.39c-7.52.07-15.03.19-22.55.2-52.14.02-104.28.01-156.41,0-1.84,0-3.69.09-5.51-.12-3.89-.44-5.95-2.73-6.11-6.65-.16-3.98,2.16-6.13,5.65-7.22.92-.29,1.99-.14,2.99-.14,59.49,0,118.98,0,178.47,0,.83,0,1.66.1,2.5.16,6.57,3.36,6.97,9.01.97,13.76Z"></path><path class="cls-9" d="M274.34,144.31c-17.34.11-34.68.33-52.01.24-3.97-.02-6.98-2.19-7.29-6.71-.33-4.82,2.49-7.19,6.77-7.65,4.12-.45,8.32-.25,12.49-.26,11.51-.02,23.02,0,34.53,0,2.17,0,4.35-.14,6.41.73,5.7,5.04,5.41,9.33-.89,13.66Z"></path><path class="cls-13" d="M325.46,144.36c-6.07.35-9.95-2.45-9.88-7.13.08-4.86,4.27-7.19,11.76-6.57,4.93,6.34,4.52,9.31-1.88,13.7Z"></path><path class="cls-7" d="M325.46,144.36c6.4-4.39,6.81-7.36,1.88-13.7.79-.2,1.57-.56,2.36-.58,6.52-.21,10.54,2.53,10.58,7.15.04,4.71-3.62,7.3-10.36,7.3-1.49,0-2.97-.11-4.46-.17Z"></path><path class="cls-8" d="M406.56,100.65c4.93-6.43,4.52-9.38-1.92-13.75,3.3-.2,6.61-.6,9.85.45,3.69,1.19,5.42,3.91,4.94,7.6-.45,3.5-2.77,5.6-6.41,5.79-2.14.11-4.3-.05-6.45-.09Z"></path><path class="cls-7" d="M405.62,57.39c6-4.74,5.6-10.4-.97-13.76,2.66-.03,5.35-.26,7.99-.03,4.07.36,7.28,3.71,6.8,7.24-.55,4.08-2.89,6.67-7.33,6.68-2.16,0-4.33-.09-6.49-.13Z"></path><path class="cls-7" d="M274.34,144.31c6.31-4.33,6.59-8.63.89-13.66,2.16-.04,4.32-.17,6.47-.1,3.87.12,6.22,2.09,6.64,6.01.42,3.89-1.53,6.36-5.12,7.5-2.9.92-5.91.54-8.89.26Z"></path></svg>