<svg xmlns="http://www.w3.org/2000/svg" id="Layer_1" data-name="Layer 1" viewBox="0 0 500 500"><defs><style>      .cls-1 {        fill: #e3f5fe;      }      .cls-1, .cls-2, .cls-3, .cls-4, .cls-5, .cls-6, .cls-7, .cls-8, .cls-9, .cls-10, .cls-11, .cls-12, .cls-13 {        stroke-width: 0px;      }      .cls-2 {        fill: #266cfe;      }      .cls-3 {        fill: #45c3f5;      }      .cls-4 {        fill: #b0e3f8;      }      .cls-5 {        fill: #b1e3f8;      }      .cls-6 {        fill: #d2edfa;      }      .cls-7 {        fill: #dff2fe;      }      .cls-8 {        fill: #afe2f8;      }      .cls-9 {        fill: #4ac5f5;      }      .cls-10 {        fill: #286dfe;      }      .cls-11 {        fill: #47c5f5;      }      .cls-12 {        fill: #48c5f5;      }      .cls-13 {        fill: #acdff8;      }    </style></defs><path class="cls-2" d="M499.79,393.41v28.27c-.25.19-.62.32-.73.57-6.88,16.09-13.9,20.76-31.28,20.76-96.6,0-193.19-.01-289.79,0-50.09,0-100.17.09-150.26.08-15.52,0-27.47-12.02-27.51-27.42-.02-5.85,0-11.7,0-17.55,0-7.54,1.2-8.76,8.75-8.77,15.06-.02,30.13,0,46.25,0-1.56-.9-2.18-1.34-2.86-1.63-15.38-6.59-22.91-18.17-22.9-34.97.07-86.29.29-172.58-.16-258.86-.1-19.39,15.43-37.31,37.25-36.98,34.3.53,68.62.23,102.93.24,88.14.02,176.28-.01,264.42.02,20.84,0,36.51,14.8,36.54,35.04.12,87.59.17,175.17-.06,262.76-.04,15.45-8.19,26.27-22.36,32.48-1.15.5-2.3.98-4.65,1.98,17.03,0,32.64.07,48.25-.06,3.57-.03,6.38.78,8.16,4.03ZM60.94,125.51c-.06,1.46-.18,2.92-.18,4.37,0,73.09,0,146.17,0,219.26,0,.81-.05,1.63.03,2.43.4,4.12,2.5,6.69,6.82,6.69,12.35.01,24.7-.1,37.04-.16,1.46.04,2.92.11,4.38.11,106.45,0,212.89,0,319.34,0,9.27,0,10.73-1.45,10.73-10.7,0-72.27,0-144.53,0-216.8,0-1.78-.11-3.57-.17-5.35.06-8.6.16-17.2.18-25.8.03-9.88-1.35-11.24-11.21-11.24-106.72,0-213.45,0-320.17,0-1.95,0-3.89.09-5.84.14-10.82-.06-21.65-.2-32.47-.15-6.09.03-8.49,2.46-8.54,8.6-.07,9.52.04,19.05.08,28.58ZM250.52,389.46v-.05c-21.61,0-43.23-.02-64.84,0-9.82.01-8.65-.86-8.85,8.98-.11,5.38.35,10.42,4.91,14.12,3.68,2.98,8.08,3.14,12.49,3.12,38.34-.2,76.68-.44,115.02-.66.16,0,.33,0,.49,0,7.96-.16,12.7-4.58,13.26-12.48.17-2.42-.14-4.89.12-7.3.48-4.48-1.32-5.86-5.79-5.82-22.26.19-44.53.09-66.79.09Z"></path><path class="cls-1" d="M438.91,125.38c.06,1.78.17,3.57.17,5.35,0,72.27,0,144.53,0,216.8,0,9.26-1.45,10.7-10.73,10.7-106.45,0-212.89,0-319.34,0-1.46,0-2.92-.07-4.38-.11-2.68-4.13-3.14-8.67-3.01-13.49.22-7.79.05-15.6.05-23.4,2.1-.08,4.21-.22,6.31-.22,27.74-.01,55.48,0,83.23-.02,1.78,0,3.59.07,5.34-.23,4.23-.71,6.74-3.2,6.64-7.62-.1-4.45-2.84-6.76-7.02-7.3-2.56-.33-5.18-.19-7.77-.26,0-41.71-.01-83.43-.03-125.14,0-8.1-1.9-9.97-10.1-10-22.41-.08-44.83-.09-67.24-.28-3.91-.03-6.96,1.06-9.16,4.32-.02-16.19-.04-32.38-.06-48.57,1.77-.19,3.54-.55,5.3-.55,110.59-.01,221.18,0,331.78.01ZM272.43,305.65c0-21.72-.1-43.44.1-65.16.04-4.54-1.53-6.03-5.93-5.86-5.99.23-12-.08-18-.08-5.97,0-6.28.31-6.29,6.42-.02,21.56,0,43.12,0,64.68-2.6.04-5.23-.14-7.8.19-4.03.51-6.49,2.92-6.84,7.04-.34,3.99,1.85,6.36,5.44,7.68,2.04.75,4.16.65,6.27.65,51.71,0,103.42,0,155.13,0,1.46,0,2.94.02,4.38-.2,4.76-.71,7.92-3.95,7.84-7.91-.07-3.65-3.87-7.06-8.38-7.36-2.27-.15-4.55-.05-6.83-.07,0-8.61.01-17.21.01-25.82,0-31.18,0-62.36,0-93.53,0-6.59-.02-6.55-6.8-6.67-5.68-.09-11.37-.15-17.04-.44-4.47-.23-6.37,1.23-6.35,6.1.17,40.11.12,80.22.13,120.33-9.84.01-19.67.02-29.51.03,0-30.98-.06-61.97.08-92.95.02-4.24-1.32-5.8-5.6-5.6-5.99.28-12.01.06-18.02.07-6.5,0-6.56.05-6.57,6.48,0,30.66,0,61.32,0,91.97-9.81,0-19.63.01-29.44.02Z"></path><path class="cls-8" d="M438.91,125.38c-110.59-.01-221.18-.03-331.78-.01-1.77,0-3.54.36-5.3.55-.07-.19-.11-.39-.11-.59.05-12.28.11-24.56.16-36.84,1.95-.05,3.89-.14,5.84-.14,106.72,0,213.45,0,320.17,0,9.85,0,11.24,1.36,11.21,11.24-.02,8.6-.12,17.2-.18,25.8Z"></path><path class="cls-6" d="M101.83,125.92c.02,16.19.04,32.38.06,48.57-.06,2.27-.18,4.54-.19,6.82-.02,41.43-.02,82.86-.03,124.29-2.42.06-4.85-.02-7.25.22-4.41.43-7.43,3.53-7.31,7.54.13,4.37,2.71,6.8,6.86,7.45,2.53.39,5.14.3,7.71.43,0,7.8.16,15.6-.05,23.4-.13,4.82.32,9.37,3.01,13.49-12.35.06-24.7.17-37.04.16-4.32,0-6.42-2.57-6.82-6.69-.08-.8-.03-1.62-.03-2.43,0-73.09,0-146.17,0-219.26,0-1.46.12-2.92.18-4.37,13.59-.06,27.18-.12,40.77-.18,0,.2.04.4.11.59Z"></path><path class="cls-3" d="M250.52,389.46c22.26,0,44.53.11,66.79-.09,4.48-.04,6.27,1.34,5.79,5.82-.26,2.41.05,4.88-.12,7.3-.56,7.9-5.3,12.32-13.26,12.48-.16,0-.33,0-.49,0-38.34.22-76.68.45-115.02.66-4.41.02-8.81-.14-12.49-3.12-4.55-3.7-5.02-8.74-4.91-14.12.21-9.84-.97-8.97,8.85-8.98,21.61-.03,43.23,0,64.84,0v.05Z"></path><path class="cls-3" d="M101.71,125.33c-13.59.06-27.18.12-40.77.18-.03-9.53-.15-19.05-.08-28.58.05-6.14,2.45-8.57,8.54-8.6,10.82-.05,21.65.09,32.47.15-.05,12.28-.11,24.56-.16,36.84Z"></path><path class="cls-10" d="M101.68,305.59c0-41.43,0-82.86.03-124.29,0-2.27.12-4.54.19-6.82,2.2-3.26,5.25-4.35,9.16-4.32,22.41.19,44.82.2,67.24.28,8.19.03,10.09,1.9,10.1,10,.02,41.71.02,83.43.03,125.14-9.45,0-18.9,0-28.36,0,0-2.59.07-5.18,0-7.77-.41-15.58,3.22-13.64-14.44-13.43-3.87-.06-7.74-.03-11.61-.2-2.91-.12-4.09,1.09-4.03,3.99.11,5.81.04,11.61.04,17.42-9.45,0-18.89,0-28.34,0ZM145.57,220.87c-5.51,0-11.03-.12-16.54.03-4.95.14-7.93,2.98-8.06,7.29-.13,4.4,2.62,7.6,7.58,7.71,11.02.24,22.06.24,33.08,0,4.92-.11,7.69-3.34,7.58-7.72-.12-4.31-3.1-7.14-8.06-7.28-5.19-.15-10.38-.03-15.57-.03ZM145.06,263.66c5.19,0,10.38.09,15.57-.02,5.31-.11,8.43-2.88,8.57-7.31.14-4.52-2.83-7.72-8.04-7.81-10.7-.2-21.41-.2-32.12,0-5.25.1-8.21,3.24-8.08,7.77.12,4.45,3.23,7.24,8.52,7.35,5.19.12,10.38.03,15.57.03ZM145.57,193.37c-5.37,0-10.73-.07-16.1.02-5.41.09-8.43,2.77-8.49,7.29-.06,4.56,2.99,7.49,8.25,7.54,10.57.09,21.14.1,31.71,0,5.26-.05,8.31-2.99,8.25-7.54-.06-4.52-3.09-7.2-8.5-7.29-5.04-.09-10.08-.02-15.12-.02Z"></path><path class="cls-12" d="M361.47,305.62c-.01-40.11.04-80.22-.13-120.33-.02-4.87,1.89-6.33,6.35-6.1,5.67.3,11.36.35,17.04.44,6.78.11,6.8.08,6.8,6.67,0,31.18,0,62.36,0,93.53,0,8.61,0,17.21-.01,25.82-10.02-.01-20.03-.03-30.05-.04Z"></path><path class="cls-11" d="M301.87,305.63c0-30.66-.02-61.32,0-91.97,0-6.43.06-6.47,6.57-6.48,6.01,0,12.02.21,18.02-.07,4.28-.2,5.62,1.36,5.6,5.6-.14,30.98-.08,61.96-.08,92.95-10.03,0-20.06-.01-30.09-.02Z"></path><path class="cls-5" d="M301.87,305.63c10.03,0,20.06.01,30.09.02,9.84-.01,19.67-.02,29.51-.03,10.02.01,20.04.03,30.05.04,2.28.01,4.56-.09,6.83.07,4.51.3,8.31,3.7,8.38,7.36.08,3.96-3.08,7.2-7.84,7.91-1.44.21-2.92.2-4.38.2-51.71,0-103.42,0-155.13,0-2.11,0-4.22.11-6.27-.65-3.59-1.32-5.78-3.69-5.44-7.68.35-4.12,2.81-6.53,6.84-7.04,2.57-.32,5.19-.14,7.8-.19,10.04,0,20.08,0,30.12.01,9.81,0,19.63-.01,29.44-.02Z"></path><path class="cls-11" d="M272.43,305.65c-10.04,0-20.08,0-30.12-.01,0-21.56-.02-43.12,0-64.68,0-6.1.31-6.42,6.29-6.42,6,0,12.01.31,18,.08,4.4-.17,5.97,1.32,5.93,5.86-.2,21.72-.09,43.44-.1,65.16Z"></path><path class="cls-9" d="M160.05,305.58c9.45,0,18.91,0,28.36,0,2.59.07,5.21-.07,7.77.26,4.18.54,6.92,2.85,7.02,7.3.1,4.42-2.41,6.91-6.64,7.62-1.74.29-3.56.23-5.34.23-27.74.01-55.48,0-83.23.02-2.1,0-4.21.14-6.31.22-2.57-.13-5.18-.04-7.71-.43-4.15-.64-6.72-3.08-6.86-7.45-.12-4.01,2.9-7.11,7.31-7.54,2.4-.23,4.83-.15,7.25-.22,9.45,0,18.89,0,28.34,0,4.88-.02,9.75-.05,14.62-.07,5.14.02,10.27.04,15.41.05Z"></path><path class="cls-13" d="M145.57,220.87c5.19,0,10.38-.11,15.57.03,4.96.14,7.95,2.97,8.06,7.28.12,4.38-2.66,7.61-7.58,7.72-11.02.24-22.06.24-33.08,0-4.95-.11-7.71-3.31-7.58-7.71.13-4.32,3.1-7.16,8.06-7.29,5.51-.15,11.03-.03,16.54-.03Z"></path><path class="cls-13" d="M145.06,263.66c-5.19,0-10.38.09-15.57-.03-5.29-.12-8.4-2.9-8.52-7.35-.13-4.52,2.83-7.67,8.08-7.77,10.7-.2,21.41-.2,32.12,0,5.21.1,8.18,3.29,8.04,7.81-.14,4.43-3.26,7.19-8.57,7.31-5.19.11-10.38.02-15.57.02Z"></path><path class="cls-4" d="M145.57,193.38c5.04,0,10.08-.07,15.12.02,5.41.1,8.44,2.77,8.5,7.29.06,4.55-2.99,7.49-8.25,7.54-10.57.1-21.14.1-31.71,0-5.26-.05-8.31-2.98-8.25-7.54.06-4.53,3.08-7.2,8.49-7.29,5.36-.09,10.73-.02,16.1-.02Z"></path><path class="cls-7" d="M160.05,305.58c-5.14-.02-10.27-.04-15.41-.05.37-7.05-.94-14.17.97-21.14,17.66-.22,14.03-2.15,14.44,13.43.07,2.59,0,5.18,0,7.77Z"></path><path class="cls-6" d="M145.62,284.38c-1.92,6.97-.61,14.1-.97,21.14-4.87.02-9.75.05-14.62.07,0-5.81.06-11.62-.04-17.42-.05-2.9,1.13-4.11,4.03-3.99,3.87.17,7.74.14,11.61.2Z"></path></svg>