<svg xmlns="http://www.w3.org/2000/svg" id="Layer_1" data-name="Layer 1" viewBox="0 0 500 500"><defs><style>      .cls-1 {        fill: #e2dff3;      }      .cls-1, .cls-2, .cls-3, .cls-4, .cls-5, .cls-6, .cls-7, .cls-8, .cls-9 {        stroke-width: 0px;      }      .cls-2 {        fill: #266cfe;      }      .cls-3 {        fill: #45c3f5;      }      .cls-4 {        fill: #61d2fe;      }      .cls-5 {        fill: #e1dff3;      }      .cls-6 {        fill: #276dfe;      }      .cls-7 {        fill: #46c4f5;      }      .cls-8 {        fill: #45c1f5;      }      .cls-9 {        fill: #45c4f5;      }    </style></defs><path class="cls-4" d="M175.9,462.57c-.15,2.58-.04,5.14-.82,7.71-3.37,11.02-16.08,14.7-24.42,6.79-6.72-6.37-13.29-12.91-19.61-19.67-2.76-2.95-4.35-2.52-6.95.12-11.4,11.58-23.03,22.92-34.49,34.43-3.1,3.12-6.29,6.02-10.33,7.85h-7.81c-4.06-1.8-7.22-4.74-10.31-7.86-16.35-16.49-32.78-32.9-49.16-49.36-7.99-8.02-7.96-16.1.07-24.19,12.12-12.22,24.19-24.49,36.45-36.58,2.66-2.62,3.04-4.24.1-6.97-6.07-5.63-11.73-11.69-17.65-17.49-4.53-4.44-7.56-9.29-5.67-16,1.99-7.07,7.17-10.03,13.91-11.08.64-.1,1.29-.18,1.93-.27,6.46-.39,12.93-.69,19.38-1.19,15.32-1.19,30.63-2.48,45.94-3.73,10.41-.95,20.83-1.91,31.24-2.86,10.1-.92,20.24-1.55,30.29-2.83,8.38-1.06,19.33,4.31,18.61,15.3-.38,5.79-.52,11.61-1.13,17.38-1.59,15.06-2.88,30.14-3.75,45.26-.31,1.75-.75,3.5-.9,5.26-1.66,19.99-3.28,39.98-4.91,59.97Z"></path><path class="cls-7" d="M251.93,24.78c38.63-.7,74.89,8.64,108.44,27.42,52.38,29.32,88.16,72.71,106.8,129.91,8.74,26.82,11.96,54.51,9.94,82.52-4.4,60.99-29.37,112.37-74.75,153.4-32.4,29.29-70.38,47.54-113.64,54.49-12.19,1.96-24.4,3.41-36.78,2.73.02-20.77.04-41.54.06-62.31l-.05.05c9.11.26,18.19-.64,27.07-2.24,40.68-7.36,74.5-26.82,100.21-59.3,29.87-37.73,41.07-80.87,33.43-128.25-6.36-39.39-25.47-72.32-56.02-97.97-30.11-25.29-65.24-37.92-104.69-38.17l.05.05c-.02-20.77-.04-41.54-.06-62.31Z"></path><path class="cls-2" d="M251.93,24.78c.02,20.77.04,41.54.06,62.31-11.07-.27-22.04,1.02-32.79,3.35-32.03,6.94-59.92,21.59-82.89,45.28-34.75,35.84-50.22,78.56-46.43,128.35,1.51,19.82,6.8,38.53,15.31,56.41.69,1.45,1.69,2.82,1.26,4.58-15.31,1.25-30.62,2.54-45.94,3.73-6.45.5-12.92.8-19.38,1.19-27.56-79.9-17.01-154.11,35.27-220.86C111.88,63.84,159.17,37.04,216.05,27.56c11.86-1.98,23.82-3.17,35.88-2.77Z"></path><path class="cls-2" d="M251.99,412.93c-.02,20.77-.04,41.54-.06,62.31-24.11.27-47.55-3.71-70.46-11.11-1.84-.59-3.71-1.05-5.57-1.57,1.63-19.99,3.25-39.98,4.91-59.97.15-1.77.59-3.51.9-5.26.91.3,1.86.53,2.73.92,21.49,9.61,43.98,14.65,67.55,14.68Z"></path><path class="cls-1" d="M470.53,38.65c.39,3.17-1.18,6.08-3.04,8.36-5.53,6.78-11.49,13.36-18.56,18.47-7.75,5.6-13.4,4.03-18.93-1.35-4.92-4.79-7.22-10.91-1.47-18.48,5.94-7.81,12.44-15.52,21.27-20.31,9.52-5.16,20.83,2.25,20.72,13.3Z"></path><path class="cls-5" d="M394.59,46.11c-11.17-.11-18.19-9.56-15.03-18.93,2.17-6.44,4.75-12.77,7.63-18.92,3.07-6.54,11.58-9.73,17.71-7.16,8.33,3.49,12.02,10.74,9.06,18.77-2.29,6.23-5.16,12.25-7.78,18.35-2.44,5.68-7.43,7.2-11.59,7.9Z"></path><path class="cls-1" d="M449.06,99.55c.58-3.72,2.05-8.15,6.65-11.02,5.67-3.54,11.66-6.48,17.78-9.06,7.53-3.17,15.08-.19,18.58,6.73,3.79,7.51,1.93,14.83-5.41,19.31-5.95,3.63-12.11,7.03-18.77,9.18-9.38,3.02-18.77-4.04-18.81-15.14Z"></path><path class="cls-7" d="M251.99,412.93c-23.57-.03-46.06-5.07-67.55-14.68-.87-.39-1.82-.62-2.73-.92.87-15.12,2.17-30.2,3.75-45.26.61-5.77.75-11.59,1.13-17.38.72-10.99-10.23-16.36-18.61-15.3-10.05,1.28-20.19,1.91-30.29,2.83-10.41.95-20.83,1.9-31.24,2.86.43-1.76-.57-3.13-1.27-4.58-8.51-17.88-13.8-36.59-15.31-56.41-3.79-49.8,11.68-92.51,46.43-128.35,22.97-23.69,50.86-38.35,82.89-45.28,10.75-2.33,21.72-3.61,32.79-3.35,0,0-.05-.05-.05-.05,0,27.34,0,54.68,0,82.01l.06-.05c-8.09.28-13.16,4.33-15,12.41-.63,2.74-1.73,4.5-4.44,5.66-5.31,2.27-9.43,6.1-12.82,10.79-9.09,12.58-10.85,32.16.49,44.43,8.59,9.29,19.72,14.33,31.76,17.55-.02.27-.03.55-.04.82,0,8.49,0,16.99,0,25.48l.05-.05c-7.71.65-14.64-1.16-21.2-5.5-5.6-3.71-14.56-1.55-18.35,3.8-5.14,7.27-3.72,14.59,1.48,19.41,4.87,4.52,10.92,7.82,17.46,9.31,3.68.84,5.01,2.55,5.76,5.9,1.74,7.74,6.9,11.77,14.84,12.03l-.05-.05c0,27.34,0,54.67,0,82.01l.05-.05Z"></path><path class="cls-2" d="M251.94,412.99c0-27.34,0-54.67,0-82.01,6.5-.47,12.49-3.76,12.77-9.87.36-7.83,5.07-10.14,10.37-12.96.85-.45,1.64-1.05,2.41-1.65,19.39-14.84,23.98-44.91,4.5-62.96-7.88-7.3-18.18-9.72-27.84-13.35-3.03-1.14-2.13,1.59-2.14,2.87-.08,8.93-.03,17.86-.02,26.79-12.04-3.22-23.17-8.26-31.76-17.55-11.34-12.26-9.58-31.85-.49-44.43,3.39-4.69,7.52-8.52,12.82-10.79,2.71-1.16,3.81-2.92,4.44-5.66,1.84-8.08,6.91-12.13,15-12.41,0,14.33,0,28.66,0,42.98-6.12.45-10.04,3.04-10.4,7.51-.38,4.74,3.41,6.48,6.93,8.26,2.58,1.31,3.52.48,3.47-2.26-.08-4.52-.04-9.05-.05-13.57,6.1-.31,11.3,2.35,16.59,4.88,7.68,3.67,15.82,1.1,19.63-6,3.78-7.05,1.62-14.8-5.52-19.39-4.25-2.73-8.82-4.82-13.7-6.17-2.02-.56-3.02-1.48-3.47-3.88-1.47-7.8-5.34-11.08-13.53-12.32,0-27.34,0-54.68,0-82.01,39.44.25,74.57,12.88,104.69,38.17,30.55,25.66,49.66,58.59,56.02,97.97,7.65,47.37-3.56,90.52-33.43,128.25-25.71,32.48-59.53,51.95-100.21,59.3-8.89,1.61-17.96,2.5-27.07,2.24Z"></path><path class="cls-9" d="M251.99,259.84c0-8.93-.05-17.86.02-26.79.01-1.28-.88-4.01,2.14-2.87,9.67,3.63,19.97,6.06,27.84,13.35,19.48,18.05,14.89,48.12-4.5,62.96-.77.59-1.55,1.19-2.41,1.65-5.3,2.82-10.01,5.12-10.37,12.96-.28,6.11-6.27,9.4-12.77,9.87,0,0,.05.05.05.05,0-14.98,0-29.96,0-44.94,0,0-.05.05-.05.05.96-.16,1.94-.22,2.86-.5,6.08-1.87,10.59-7.41,10.7-13.09.09-4.61-3.39-8.43-9.84-10.74-1.22-.44-2.48-.77-3.72-1.15.01-.27.02-.55.04-.82Z"></path><path class="cls-2" d="M252,286.09c0,14.98,0,29.96,0,44.94-7.94-.26-13.1-4.29-14.84-12.03-.75-3.35-2.09-5.06-5.76-5.9-6.54-1.49-12.59-4.79-17.46-9.31-5.2-4.82-6.62-12.14-1.48-19.41,3.79-5.35,12.74-7.5,18.35-3.8,6.56,4.34,13.48,6.16,21.2,5.5Z"></path><path class="cls-6" d="M251.95,260.66c1.24.38,2.5.71,3.72,1.15,6.45,2.32,9.93,6.14,9.84,10.74-.11,5.68-4.62,11.22-10.7,13.09-.92.28-1.91.34-2.86.5,0-8.49,0-16.99,0-25.48Z"></path><path class="cls-3" d="M251.94,169.06c8.19,1.24,12.07,4.52,13.53,12.32.45,2.39,1.44,3.32,3.47,3.88,4.88,1.35,9.45,3.44,13.7,6.17,7.14,4.58,9.3,12.33,5.52,19.39-3.8,7.09-11.95,9.67-19.63,6-5.29-2.53-10.49-5.18-16.59-4.88l.05.05c0-14.33,0-28.66,0-42.98,0,0-.06.05-.06.05Z"></path><path class="cls-8" d="M251.94,211.94c0,4.52-.03,9.05.05,13.57.05,2.74-.89,3.57-3.47,2.26-3.52-1.78-7.31-3.52-6.93-8.26.36-4.48,4.28-7.07,10.4-7.51,0,0-.05-.05-.05-.05Z"></path></svg>